<svg width="40" height="40" viewBox="0 0 40 40" fill="none" xmlns="http://www.w3.org/2000/svg">
<g clip-path="url(#clip0_12_790)">
<path d="M31.6667 0H8.33333C3.73333 0 0 3.73333 0 8.33333V31.6667C0 36.2667 3.73333 40 8.33333 40H31.6667C36.2667 40 40 36.2667 40 31.6667V8.33333C40 3.73333 36.2667 0 31.6667 0ZM36.6667 31.6667C36.6667 34.4167 34.4167 36.6667 31.6667 36.6667H8.33333C5.58333 36.6667 3.33333 34.4167 3.33333 31.6667V8.33333C3.33333 5.58333 5.58333 3.33333 8.33333 3.33333H31.6667C34.4167 3.33333 36.6667 5.58333 36.6667 8.33333V31.6667Z" fill="black"/>
<path d="M20 8.33331C13.5666 8.33331 8.33331 13.5666 8.33331 20C8.33331 26.4333 13.5666 31.6666 20 31.6666C26.4333 31.6666 31.6666 26.4333 31.6666 20C31.6666 13.5666 26.4333 8.33331 20 8.33331ZM20 28.3333C15.4 28.3333 11.6666 24.6 11.6666 20C11.6666 15.4 15.4 11.6666 20 11.6666C24.6 11.6666 28.3333 15.4 28.3333 20C28.3333 24.6 24.6 28.3333 20 28.3333Z" fill="black"/>
<path d="M31.6667 10C32.5871 10 33.3333 9.25383 33.3333 8.33335C33.3333 7.41288 32.5871 6.66669 31.6667 6.66669C30.7462 6.66669 30 7.41288 30 8.33335C30 9.25383 30.7462 10 31.6667 10Z" fill="black"/>
</g>
<defs>
<clipPath id="clip0_12_790">
<rect width="40" height="40" fill="white"/>
</clipPath>
</defs>
</svg>
