<svg width="131" height="93" viewBox="0 0 131 93" fill="none" xmlns="http://www.w3.org/2000/svg">
<path d="M45.4157 64.8263L45.4234 64.816L45.4332 64.8077L48.8399 61.9138L35.4166 65.9881C33.5136 66.5657 32.6082 68.9193 33.6177 70.6645C34.4525 72.1079 36.2611 72.5012 37.6411 71.5399L43.1434 67.7071L45.4157 64.8263Z" fill="#E4312B" stroke="black" stroke-width="0.5"/>
<path d="M56.1457 64.8263L56.1372 64.816L56.1268 64.8077L52.52 61.9138L66.7328 65.9881C68.7481 66.5657 69.7066 68.9193 68.6375 70.6645C67.7538 72.1079 65.8386 72.5012 64.3774 71.5399L58.5517 67.7071L56.1457 64.8263Z" fill="white" stroke="black" stroke-width="0.5"/>
<path d="M49.7602 75.9323L43.8506 73.9119L39.7731 87.2538C39.2358 89.0118 40.3807 90.8346 42.2467 91.1926L43.2591 91.3869C45.0132 91.7236 46.7185 90.6273 47.0682 88.9382L49.7602 75.9323Z" fill="white" stroke="black" stroke-width="0.5"/>
<path d="M51.6 75.9323L57.5095 73.9119L61.5871 87.2538C62.1243 89.0118 60.9794 90.8346 59.1134 91.1926L58.101 91.3869C56.347 91.7236 54.6416 90.6273 54.2919 88.9382L51.6 75.9323Z" fill="black" stroke="black" stroke-width="0.5"/>
<path d="M50.5433 60.8536L50.816 60.8712C50.8998 60.1816 51.089 59.7329 51.3371 59.4684C51.5793 59.2095 51.8931 59.1116 52.2691 59.155C52.6502 59.1986 53.0926 59.3881 53.5699 59.7051C54.0455 60.021 54.5478 60.4581 55.0473 60.985C56.0464 62.0394 57.0263 63.4447 57.7561 64.9362C58.4863 66.4292 58.9601 67.9965 58.9601 69.3767C58.9601 74.9625 55.2331 79.4495 50.6801 79.4495C46.1275 79.4495 42.4001 74.9625 42.4001 69.3767C42.4001 67.9993 42.9154 66.4331 43.6989 64.9398C44.4814 63.4486 45.5253 62.0422 46.5679 60.9871C47.0889 60.4595 47.6076 60.0221 48.0908 59.7054C48.5756 59.3878 49.0156 59.1983 49.381 59.1546C49.7399 59.112 50.0177 59.2095 50.2117 59.4585C50.4136 59.7174 50.5433 60.1622 50.5433 60.8536Z" fill="white" stroke="black" stroke-width="0.5"/>
<path d="M46.0628 53.7825L46.0632 53.7778L46.0639 53.7731C46.14 53.145 46.3311 52.5577 46.5215 52.0275C46.5594 51.9228 46.5969 51.8206 46.6333 51.7209C46.7836 51.3106 46.9179 50.9447 46.9856 50.6142C47.0686 50.2079 47.0424 49.8933 46.8458 49.6445C46.6445 49.3888 46.2387 49.1684 45.4771 49.0196C43.3502 48.7686 41.4205 50.2906 41.1329 52.6618C40.9957 53.7962 41.7459 54.6558 42.8577 55.2778C43.9453 55.886 45.3374 56.2396 46.4247 56.3761C46.7891 56.0836 47.0573 55.8636 47.2485 55.6971C47.4028 55.5624 47.5004 55.4685 47.5568 55.4038C47.5247 55.4009 47.488 55.3984 47.445 55.3959L47.4388 55.3955L47.4345 55.3952C47.2029 55.3807 46.8338 55.358 46.5357 55.1405C46.223 54.9119 46.0232 54.498 46.0628 53.7825Z" fill="white" stroke="black" stroke-width="0.5"/>
<path d="M56.2171 53.7825L56.2167 53.7778L56.216 53.7731C56.1399 53.145 55.9488 52.5577 55.7584 52.0275C55.7205 51.9228 55.6831 51.8206 55.6467 51.7209C55.4963 51.3106 55.362 50.9447 55.2943 50.6142C55.2113 50.2079 55.2375 49.8933 55.4341 49.6445C55.6354 49.3888 56.0413 49.1684 56.8028 49.0196C58.9297 48.7686 60.8594 50.2906 61.147 52.6618C61.2842 53.7962 60.534 54.6558 59.4223 55.2778C58.3346 55.886 56.9426 56.2396 55.8552 56.3761C55.4909 56.0836 55.2226 55.8636 55.0315 55.6971C54.8771 55.5624 54.7796 55.4685 54.7231 55.4038C54.7552 55.4009 54.7919 55.3984 54.8349 55.3959L54.8411 55.3955L54.8455 55.3952C55.077 55.3807 55.4461 55.358 55.7442 55.1405C56.0569 54.9119 56.2568 54.498 56.2171 53.7825Z" fill="white" stroke="black" stroke-width="0.5"/>
<path d="M58.4999 56.3762C58.4999 59.9377 55.212 62.8367 51.1399 62.8367C47.0677 62.8367 43.7799 59.9377 43.7799 56.3762C43.7799 52.8146 47.0677 49.9156 51.1399 49.9156C55.212 49.9156 58.4999 52.8146 58.4999 56.3762Z" fill="white" stroke="black" stroke-width="0.5"/>
<path d="M32.6776 29.484C32.3473 28.779 31.5335 28.4879 30.86 28.8336C30.1865 29.1794 29.9083 30.0311 30.2387 30.7361L32.6776 29.484ZM30.2387 30.7361C35.1138 41.1395 41.4058 67.7787 27.6802 90.8687L29.9867 92.3706C44.3981 68.1274 37.7767 40.365 32.6776 29.484L30.2387 30.7361Z" fill="black"/>
<path d="M18.4601 46.2323C18.0302 46.1689 17.6309 46.4704 17.5682 46.9064C17.5055 47.3423 17.8033 47.747 18.2332 47.8104L18.4601 46.2323ZM18.2332 47.8104C21.8135 48.3396 26.9319 50.2707 30.6219 54.3042C34.2726 58.2948 36.6012 64.4231 34.5293 73.5543L36.0624 73.9119C38.2423 64.3058 35.8072 57.6267 31.7755 53.2197C27.7833 48.8559 22.3011 46.7997 18.4601 46.2323L18.2332 47.8104Z" fill="black"/>
<path d="M37.1198 32.3798C36.2309 27.1216 37.3489 15.3346 48.5428 5.61466C49.5507 12.1194 48.5153 25.3302 37.1198 32.3798Z" fill="#149954" stroke="black" stroke-width="0.5"/>
<path d="M29.3874 27.7651C30.0674 22.3722 28.4605 10.4169 16.7967 1C16.0479 7.66746 17.6295 21.0762 29.3874 27.7651Z" fill="#149954" stroke="black" stroke-width="0.5"/>
<path d="M29.52 36.0789C25.8544 31.9051 15.7138 25.2614 1 28.7377C5.59135 33.8206 16.822 41.4568 29.52 36.0789Z" fill="#149954" stroke="black" stroke-width="0.5"/>
<path d="M16.6399 46.6853C16.6399 47.5137 16.0893 48.3109 15.0908 48.9194C14.0947 49.5266 12.6922 49.9156 11.1199 49.9156C9.54762 49.9156 8.14513 49.5266 7.14895 48.9194C6.15045 48.3109 5.59989 47.5137 5.59989 46.6853C5.59989 45.8569 6.15045 45.06 7.14895 44.4515C8.14513 43.8444 9.54762 43.455 11.1199 43.455C12.6922 43.455 14.0947 43.8444 15.0908 44.4515C16.0893 45.06 16.6399 45.8569 16.6399 46.6853Z" fill="black" stroke="black" stroke-width="0.5"/>
<path d="M22.0727 53.16C22.7702 53.6867 23.129 54.6064 23.0748 55.7418C23.0206 56.8747 22.5524 58.1738 21.6601 59.3528C20.7678 60.5317 19.6443 61.3358 18.5677 61.6967C17.4887 62.0586 16.505 61.9649 15.8075 61.4382C15.1101 60.9115 14.7512 59.9918 14.8055 58.8564C14.8596 57.7235 15.3279 56.4244 16.2202 55.2454C17.1124 54.0665 18.236 53.2624 19.3125 52.9012C20.3915 52.5396 21.3752 52.6333 22.0727 53.16Z" fill="black" stroke="black" stroke-width="0.5"/>
<path d="M69.541 63.3706H67.167V47.2573H69.5303V56.3774C69.7881 55.9907 70.0387 55.6326 70.2822 55.3032C70.5257 54.9738 70.737 54.6945 70.916 54.4653L76.6523 47.2573H79.4561L73.5693 54.6587L80.6377 63.3706H77.5762L72.0547 56.5601L69.541 59.729V63.3706ZM82.5721 49.5132C82.2356 49.5132 81.9527 49.395 81.7235 49.1587C81.4943 48.9224 81.3798 48.6359 81.3798 48.2993C81.3798 47.9627 81.4943 47.6799 81.7235 47.4507C81.9527 47.2144 82.2356 47.0962 82.5721 47.0962C82.9159 47.0962 83.2024 47.2144 83.4315 47.4507C83.6679 47.6799 83.786 47.9627 83.786 48.2993C83.786 48.6359 83.6679 48.9224 83.4315 49.1587C83.2024 49.395 82.9159 49.5132 82.5721 49.5132ZM83.6679 63.3706H81.4657V52.6284H83.6679V63.3706ZM96.2048 63.3706H94.0027V57.5376C94.0027 56.5851 93.7413 55.826 93.2185 55.2603C92.7029 54.6945 92.0082 54.4116 91.1345 54.4116C90.2322 54.4116 89.5053 54.7124 88.9539 55.314C88.4024 55.9155 88.1267 56.714 88.1267 57.7095V63.3706H85.9246V52.6284H87.783L87.8582 54.3579C88.252 53.7277 88.7677 53.2479 89.405 52.9185C90.0424 52.5819 90.7908 52.4136 91.6502 52.4136C93.061 52.4136 94.171 52.8397 94.9802 53.6919C95.7966 54.5441 96.2048 55.7186 96.2048 57.2153V63.3706ZM108.892 63.3706H106.948L106.83 61.8345C106.343 62.3787 105.756 62.8084 105.068 63.1235C104.388 63.4315 103.639 63.5854 102.823 63.5854C101.792 63.5854 100.868 63.342 100.051 62.855C99.235 62.368 98.5905 61.702 98.1178 60.8569C97.6523 60.0119 97.4196 59.0594 97.4196 57.9995C97.4196 56.9325 97.6523 55.98 98.1178 55.1421C98.5905 54.297 99.235 53.631 100.051 53.144C100.868 52.6571 101.792 52.4136 102.823 52.4136C103.596 52.4136 104.312 52.5532 104.971 52.8325C105.637 53.1118 106.21 53.5021 106.69 54.0034V47.2573H108.892V63.3706ZM103.188 61.6089C103.84 61.6089 104.427 61.4585 104.95 61.1577C105.48 60.8569 105.902 60.4487 106.217 59.9331C106.533 59.4175 106.69 58.8302 106.69 58.1714V57.8062C106.69 57.1473 106.533 56.5601 106.217 56.0444C105.902 55.5288 105.48 55.1242 104.95 54.8306C104.427 54.5369 103.84 54.3901 103.188 54.3901C102.522 54.3901 101.924 54.5477 101.394 54.8628C100.864 55.1779 100.445 55.6076 100.137 56.1519C99.8294 56.689 99.6754 57.3013 99.6754 57.9888C99.6754 58.6763 99.8294 59.2922 100.137 59.8364C100.445 60.3807 100.864 60.814 101.394 61.1362C101.924 61.4513 102.522 61.6089 103.188 61.6089ZM120.688 62.0923C119.356 63.0877 117.891 63.5854 116.294 63.5854C115.156 63.5854 114.135 63.3348 113.233 62.8335C112.331 62.3322 111.618 61.6483 111.095 60.7817C110.572 59.9152 110.311 58.9377 110.311 57.8491C110.311 56.8107 110.551 55.8833 111.031 55.0669C111.511 54.2433 112.166 53.5952 112.997 53.1226C113.827 52.6499 114.769 52.4136 115.822 52.4136C116.91 52.4136 117.866 52.6714 118.69 53.187C119.521 53.7026 120.165 54.4224 120.624 55.3462C121.089 56.2629 121.322 57.3263 121.322 58.5366V58.8804H112.696C112.825 59.439 113.068 59.9295 113.426 60.3521C113.784 60.7674 114.228 61.0933 114.758 61.3296C115.288 61.5588 115.886 61.6733 116.552 61.6733C117.741 61.6733 118.833 61.2866 119.829 60.5132L120.688 62.0923ZM112.599 57.355H119.27C119.198 56.7534 119.012 56.2306 118.711 55.7866C118.411 55.3354 118.02 54.9845 117.541 54.7339C117.068 54.4761 116.534 54.3472 115.94 54.3472C115.338 54.3472 114.798 54.4761 114.318 54.7339C113.838 54.9845 113.448 55.3354 113.147 55.7866C112.853 56.2378 112.671 56.7606 112.599 57.355ZM124.954 63.3706H122.751V52.6284H124.674L124.76 54.6694C125.133 53.9604 125.645 53.409 126.296 53.0151C126.955 52.6141 127.711 52.4136 128.563 52.4136C128.771 52.4136 128.978 52.4279 129.186 52.4565C129.401 52.478 129.616 52.5138 129.83 52.564L129.551 54.5513C129.136 54.4438 128.728 54.3901 128.327 54.3901C127.661 54.3901 127.073 54.5513 126.565 54.8735C126.056 55.1886 125.659 55.6255 125.372 56.1841C125.093 56.7427 124.954 57.3872 124.954 58.1177V63.3706ZM77.2646 90.3706H67.167V74.2573H69.5303V88.2866H77.2646V90.3706ZM79.7577 76.5132C79.4211 76.5132 79.1382 76.395 78.9091 76.1587C78.6799 75.9224 78.5653 75.6359 78.5653 75.2993C78.5653 74.9627 78.6799 74.6799 78.9091 74.4507C79.1382 74.2144 79.4211 74.0962 79.7577 74.0962C80.1014 74.0962 80.3879 74.2144 80.6171 74.4507C80.8534 74.6799 80.9716 74.9627 80.9716 75.2993C80.9716 75.6359 80.8534 75.9224 80.6171 76.1587C80.3879 76.395 80.1014 76.5132 79.7577 76.5132ZM80.8534 90.3706H78.6512V79.6284H80.8534V90.3706ZM100.276 90.3706H98.074V84.7524C98.074 83.6854 97.8448 82.8582 97.3865 82.271C96.9353 81.6838 96.2979 81.3901 95.4744 81.3901C94.6365 81.3901 93.9812 81.6873 93.5086 82.2817C93.0359 82.8761 92.7996 83.6997 92.7996 84.7524V90.3706H90.5974V84.7524C90.5974 83.6854 90.3683 82.8582 89.9099 82.271C89.4516 81.6838 88.8106 81.3901 87.9871 81.3901C87.1492 81.3901 86.4939 81.6873 86.0212 82.2817C85.5486 82.8761 85.3123 83.6997 85.3123 84.7524V90.3706H83.1101V79.6284H84.8933L84.9793 81.4976C85.3373 80.8172 85.8207 80.3016 86.4295 79.9507C87.0453 79.5926 87.7686 79.4136 88.5994 79.4136C89.4802 79.4136 90.2358 79.6069 90.866 79.9937C91.4962 80.3804 91.9724 80.9354 92.2947 81.6587C92.6528 80.9211 93.1469 80.3625 93.7771 79.9829C94.4145 79.6034 95.17 79.4136 96.0437 79.4136C97.3757 79.4136 98.4142 79.8361 99.1589 80.6812C99.9037 81.5262 100.276 82.7043 100.276 84.2153V90.3706ZM104.219 90.3706H102.275V74.2573H104.477V81.0034C104.964 80.5021 105.534 80.1118 106.185 79.8325C106.844 79.5532 107.56 79.4136 108.334 79.4136C109.372 79.4136 110.296 79.6571 111.105 80.144C111.914 80.631 112.552 81.297 113.017 82.1421C113.49 82.98 113.726 83.9325 113.726 84.9995C113.726 86.0594 113.49 87.0119 113.017 87.8569C112.552 88.702 111.914 89.368 111.105 89.855C110.296 90.342 109.372 90.5854 108.334 90.5854C107.517 90.5854 106.765 90.4315 106.078 90.1235C105.397 89.8084 104.814 89.3787 104.327 88.8345L104.219 90.3706ZM107.979 88.6089C108.645 88.6089 109.24 88.4513 109.762 88.1362C110.292 87.8211 110.708 87.3914 111.008 86.8472C111.316 86.3029 111.47 85.687 111.47 84.9995C111.47 84.312 111.316 83.6961 111.008 83.1519C110.708 82.6076 110.292 82.1779 109.762 81.8628C109.24 81.5477 108.645 81.3901 107.979 81.3901C107.342 81.3901 106.765 81.5334 106.25 81.8198C105.741 82.1063 105.329 82.5002 105.014 83.0015C104.699 83.5028 104.52 84.0757 104.477 84.7202V85.2681C104.52 85.9054 104.696 86.4784 105.004 86.9868C105.319 87.4881 105.73 87.8856 106.239 88.1792C106.755 88.4657 107.335 88.6089 107.979 88.6089ZM114.393 89.436L114.93 87.4595C115.174 87.703 115.464 87.9178 115.8 88.104C116.144 88.2902 116.506 88.437 116.885 88.5444C117.272 88.6447 117.652 88.6948 118.024 88.6948C118.611 88.6948 119.084 88.5695 119.442 88.3188C119.8 88.0682 119.979 87.7352 119.979 87.3198C119.979 87.0119 119.879 86.7576 119.678 86.5571C119.485 86.3494 119.223 86.1704 118.894 86.02C118.572 85.8696 118.224 85.7228 117.852 85.5796C117.372 85.4006 116.892 85.1929 116.413 84.9565C115.94 84.7202 115.542 84.4051 115.22 84.0112C114.898 83.6174 114.737 83.0981 114.737 82.4536C114.737 81.8377 114.894 81.3042 115.209 80.853C115.525 80.3947 115.965 80.0402 116.531 79.7896C117.097 79.5389 117.748 79.4136 118.486 79.4136C119.632 79.4136 120.767 79.7 121.891 80.2729L121.247 82.1528C121.017 81.9881 120.745 81.8413 120.43 81.7124C120.115 81.5835 119.793 81.4832 119.463 81.4116C119.134 81.3328 118.83 81.2935 118.55 81.2935C118.085 81.2935 117.709 81.3973 117.422 81.605C117.143 81.8127 117.003 82.092 117.003 82.4429C117.003 82.6577 117.071 82.8547 117.208 83.0337C117.344 83.2056 117.558 83.3774 117.852 83.5493C118.153 83.714 118.557 83.9002 119.066 84.1079C119.553 84.3013 120.04 84.5233 120.527 84.7739C121.014 85.0246 121.418 85.3504 121.741 85.7515C122.07 86.1525 122.235 86.6789 122.235 87.3306C122.235 87.9751 122.063 88.5444 121.719 89.0386C121.376 89.5256 120.896 89.9051 120.28 90.1772C119.671 90.4494 118.962 90.5854 118.153 90.5854C116.814 90.5854 115.56 90.2023 114.393 89.436Z" fill="black"/>
</svg>
