<svg width="78" height="78" viewBox="0 0 78 78" fill="none" xmlns="http://www.w3.org/2000/svg">
<path d="M38.8249 0.350159C17.4154 0.350159 0 17.7655 0 39.1751C0 60.5847 17.4154 78 38.8249 78C60.2345 78 77.6499 60.5847 77.6499 39.1751C77.6499 17.7655 60.2345 0.350159 38.8249 0.350159ZM38.8249 14.2161C46.4501 14.2161 52.691 20.4573 52.691 28.0824C52.691 35.7075 46.4501 41.9483 38.8249 41.9483C31.1998 41.9483 24.9589 35.7075 24.9589 28.0824C24.9589 20.4573 31.1998 14.2161 38.8249 14.2161ZM27.7321 47.4949H49.9178C57.4894 47.4949 63.6726 53.6279 63.773 61.1766C57.6802 68.0833 48.7834 72.4535 38.8249 72.4535C28.8665 72.4535 19.9697 68.0833 13.8769 61.1766C13.9773 53.6279 20.1604 47.4949 27.7321 47.4949Z" fill="black"/>
</svg>
